<?xml version="1.0" standalone="no"?><svg xmlns:xlink="http://www.w3.org/1999/xlink" xmlns="http://www.w3.org/2000/svg" viewBox="0 0 200 107.69296886257517" preserveAspectRatio="xMaxYMax slice"><g transform="scale(0.25280039639102153)"><rect x="0" y="0" width="791.1428571428571" height="426" fill="#ffffff"/><polygon points="182.57,60.86 243.43,60.86 243.43,121.72" fill="#55e5f5"/><polygon points="365.14,60.86 426,60.86 365.14,121.72" fill="#a745e0"/><polygon points="669.4300000000001,60.86 669.4300000000001,121.72 608.57,121.72" fill="#e6caf6"/><polygon points="121.71,121.71 182.57,182.57 121.71,182.57" fill="#e8fcfe"/><polygon points="365.15000000000003,121.71 365.15000000000003,182.57 304.29,182.57" fill="#7bebf7"/><polygon points="365.14,121.71 426,182.57 365.14,182.57" fill="#89edf8"/><polygon points="426,121.71 486.86,121.71 486.86,182.57" fill="#d4f8fc"/><polygon points="547.71,121.71 608.57,121.71 547.71,182.57" fill="#b056e3"/><polygon points="730.29,121.71 791.15,121.71 730.29,182.57" fill="#edfcfe"/><polygon points="182.57,182.57 243.43,182.57 182.57,243.43" fill="#d7abf1"/><polygon points="304.29,182.57 365.15000000000003,243.43 304.29,243.43" fill="#f5e9fb"/><polygon points="426,182.57 426,243.43 365.14,243.43" fill="#b869e6"/><polygon points="426,182.57 486.86,182.57 486.86,243.43" fill="#c27eea"/><polygon points="486.86,182.57 547.72,182.57 486.86,243.43" fill="#feffff"/><polygon points="547.71,182.57 608.57,243.43 547.71,243.43" fill="#b0f3fa"/><polygon points="608.57,182.57 669.4300000000001,243.43 608.57,243.43" fill="#59e6f5"/><polygon points="730.29,182.57 730.29,243.43 669.43,243.43" fill="#2fdff3"/><polygon points="60.86,243.43 121.72,304.29 60.86,304.29" fill="#32e0f3"/><polygon points="182.57,243.43 182.57,304.29 121.71,304.29" fill="#af55e3"/><polygon points="182.57,243.43 243.43,243.43 182.57,304.29" fill="#d4f8fc"/><polygon points="304.29,243.43 304.29,304.29 243.43,304.29" fill="#53e5f5"/><polygon points="304.29,243.43 365.15000000000003,304.29 304.29,304.29" fill="#f1e2fa"/><polygon points="365.14,243.43 426,243.43 365.14,304.29" fill="#f5eafc"/><polygon points="426,243.43 486.86,304.29 426,304.29" fill="#3fe2f4"/><polygon points="486.86,243.43 547.72,304.29 486.86,304.29" fill="#37e1f3"/><polygon points="547.71,243.43 608.57,243.43 608.57,304.29" fill="#a1f1f9"/><polygon points="486.86,304.29 547.72,365.15000000000003 486.86,365.15000000000003" fill="#ae52e2"/><polygon points="547.71,304.29 608.57,365.15000000000003 547.71,365.15000000000003" fill="#ba6de7"/><polygon points="669.4300000000001,304.29 669.4300000000001,365.15000000000003 608.57,365.15000000000003" fill="#b868e6"/><polygon points="669.43,304.29 730.29,304.29 730.29,365.15000000000003" fill="#dbb2f2"/><polygon points="365.14,365.14 426,365.14 426,426" fill="#27def2"/><polygon points="547.71,365.14 608.57,365.14 547.71,426" fill="#7cebf7"/><polygon points="730.29,365.14 791.15,365.14 730.29,426" fill="#b461e5"/></g></svg>